<svg width="167" height="48" viewBox="0 0 167 48" fill="none" xmlns="http://www.w3.org/2000/svg">
<path d="M14.9239 41.3919C14.3693 41.3226 13.9706 41.1146 13.7279 40.7679C13.5199 40.4213 13.4333 40.0746 13.4679 39.7279C13.4679 39.3119 13.6066 38.9653 13.8839 38.6879C14.1613 38.4106 14.5599 38.2719 15.0799 38.2719C15.5999 38.3066 16.1199 38.3239 16.6399 38.3239C17.1599 38.3586 17.6799 38.3759 18.1999 38.3759C20.2799 38.3759 22.1173 38.2199 23.7119 37.9079C25.3413 37.5959 26.6239 37.0413 27.5599 36.2439C28.4959 35.4466 28.9639 34.3199 28.9639 32.8639C28.9639 31.8933 28.7039 31.1999 28.1839 30.7839C27.6986 30.3333 27.0399 30.0559 26.2079 29.9519C25.4106 29.8133 24.5266 29.7439 23.5559 29.7439C22.2733 29.7439 20.9559 29.8133 19.6039 29.9519C18.2866 30.0559 16.9173 30.1079 15.4959 30.1079C12.5839 30.1079 9.94926 29.6053 7.59192 28.5999C5.26926 27.5946 3.41459 26.1386 2.02792 24.2319C0.675922 22.2906 -7.79778e-05 19.9506 -7.79778e-05 17.2119C-7.79778e-05 14.8199 0.485255 12.5839 1.45592 10.5039C2.42659 8.38926 3.76126 6.55192 5.45992 4.99192C7.15859 3.43192 9.11726 2.21859 11.3359 1.35192C13.5546 0.450591 15.9119 -7.48634e-05 18.4079 -7.48634e-05C21.1466 -7.48634e-05 23.9199 0.502592 26.7279 1.50792C29.5359 2.51326 32.2399 3.96926 34.8399 5.87592C35.0826 6.04926 35.2386 6.25726 35.3079 6.49993C35.4119 6.74259 35.4639 6.98526 35.4639 7.22793C35.4639 7.57459 35.3773 7.88659 35.2039 8.16393C34.8573 8.68392 34.4239 8.94392 33.9039 8.94392C33.6266 8.94392 33.3493 8.83992 33.0719 8.63193C30.7493 7.00259 28.3226 5.71992 25.7919 4.78393C23.2613 3.84793 20.7826 3.37993 18.3559 3.37993C16.3799 3.37993 14.4906 3.76126 12.6879 4.52393C10.9199 5.25192 9.34259 6.25726 7.95592 7.53992C6.56926 8.78792 5.47726 10.2439 4.67992 11.9079C3.88259 13.5373 3.48392 15.2533 3.48392 17.0559C3.48392 19.3439 4.05592 21.2333 5.19992 22.7239C6.34392 24.1799 7.90392 25.2546 9.87992 25.9479C11.8906 26.6413 14.1439 26.9879 16.6399 26.9879C18.1653 26.9879 19.6386 26.9359 21.0599 26.8319C22.5159 26.7279 23.7639 26.6759 24.8039 26.6759C26.9533 26.6759 28.7386 27.2826 30.1599 28.4959C31.5813 29.6746 32.2919 31.1999 32.2919 33.0719C32.2919 35.1519 31.6333 36.7986 30.3159 38.0119C29.0333 39.2599 27.2826 40.1439 25.0639 40.6639C22.8799 41.1839 20.4013 41.4439 17.6279 41.4439C17.1773 41.4439 16.7266 41.4439 16.2759 41.4439C15.8599 41.4439 15.4093 41.4266 14.9239 41.3919ZM70.9653 40.5599C70.688 40.5599 70.4106 40.4733 70.1333 40.2999C69.856 40.1613 69.648 39.9186 69.5093 39.5719C68.9546 38.2893 68.5213 36.8853 68.2093 35.3599C67.8973 33.8346 67.6546 32.3786 67.4813 30.9919C66.7186 32.7253 65.696 34.3026 64.4133 35.7239C63.1306 37.1106 61.6746 38.2199 60.0453 39.0519C58.416 39.8839 56.6653 40.3519 54.7933 40.4559C51.2573 40.6293 48.3626 40.0573 46.1093 38.7399C43.8906 37.4573 42.244 35.6373 41.1693 33.2799C40.1293 30.8879 39.6093 28.2013 39.6093 25.2199C39.6093 23.0706 39.852 20.8519 40.3373 18.5639C40.8226 16.2413 41.516 13.9186 42.4173 11.5959C42.66 10.9373 43.128 10.6079 43.8213 10.6079C44.3066 10.6079 44.7053 10.7466 45.0173 11.0239C45.3293 11.3013 45.4853 11.6479 45.4853 12.0639C45.4853 12.2373 45.4333 12.4626 45.3293 12.7399C44.4626 14.9586 43.7866 17.1426 43.3013 19.2919C42.8506 21.4413 42.6253 23.4866 42.6253 25.4279C42.6253 27.7506 43.0066 29.8306 43.7693 31.6679C44.532 33.5053 45.728 34.9439 47.3573 35.9839C48.9866 36.9893 51.1013 37.4399 53.7013 37.3359C56.2666 37.2319 58.5373 36.3826 60.5133 34.7879C62.524 33.1933 64.1013 31.0093 65.2453 28.2359C66.3893 25.4279 66.9613 22.2386 66.9613 18.6679C66.9613 18.0439 66.9266 17.4026 66.8573 16.7439C66.8226 16.0853 66.7706 15.4266 66.7013 14.7679C66.632 14.1786 66.7706 13.7799 67.1173 13.5719C67.4986 13.3639 67.88 13.2599 68.2613 13.2599C68.7466 13.2946 69.1453 13.4679 69.4573 13.7799C69.804 14.0573 69.9773 14.4386 69.9773 14.9239C69.9773 16.3106 70.012 17.8879 70.0813 19.6559C70.1853 21.4239 70.3066 23.2613 70.4453 25.1679C70.6186 27.0746 70.8093 28.9119 71.0173 30.6799C71.2253 32.4479 71.468 34.0253 71.7453 35.4119C72.0226 36.7639 72.3346 37.7866 72.6813 38.4799C72.7506 38.5839 72.7853 38.6879 72.7853 38.7919C72.7853 38.8959 72.7853 38.9999 72.7853 39.1039C72.7853 39.5546 72.5946 39.9013 72.2133 40.1439C71.832 40.4213 71.416 40.5599 70.9653 40.5599ZM106.782 40.8719C106.331 40.8719 105.932 40.7159 105.586 40.4039C105.274 40.1266 105.118 39.7626 105.118 39.3119C105.118 39.1733 105.152 38.9999 105.222 38.7919C105.811 36.9546 106.279 35.0306 106.626 33.0199C107.007 30.9746 107.198 29.0159 107.198 27.1439C107.198 23.4346 106.418 20.4879 104.858 18.3039C103.332 16.0853 100.906 14.8546 97.5775 14.6119C95.0815 14.5079 92.9322 15.1319 91.1295 16.4839C89.3268 17.8359 87.8188 19.6213 86.6055 21.8399C85.5308 23.8853 84.7162 26.2079 84.1615 28.8079C83.6415 31.4079 83.3815 33.9386 83.3815 36.3999C83.3815 36.7466 83.3815 37.0933 83.3815 37.4399C83.3815 37.8213 83.3988 38.1853 83.4335 38.5319C83.4335 39.1559 83.2428 39.5893 82.8615 39.8319C82.5148 40.1093 82.1508 40.2479 81.7695 40.2479C80.9028 40.2479 80.4175 39.7453 80.3135 38.7399C80.0708 36.5559 79.8455 34.1293 79.6375 31.4599C79.4642 28.7559 79.3082 26.0519 79.1695 23.3479C79.0655 20.6093 79.0135 18.0959 79.0135 15.8079C79.0135 15.1493 79.0135 14.5253 79.0135 13.9359C79.0135 13.3466 79.0308 12.7919 79.0655 12.2719C79.0655 11.6826 79.2388 11.2666 79.5855 11.0239C79.9668 10.7813 80.3308 10.6946 80.6775 10.7639C81.0935 10.7639 81.4402 10.9026 81.7175 11.1799C82.0295 11.4573 82.1855 11.8386 82.1855 12.3239C82.2202 13.6759 82.2375 14.8546 82.2375 15.8599C82.2375 16.8653 82.2375 17.9053 82.2375 18.9799C82.2722 20.0546 82.2895 21.4239 82.2895 23.0879C83.0175 20.7306 84.0922 18.6506 85.5135 16.8479C86.9695 15.0453 88.6682 13.6413 90.6095 12.6359C92.5508 11.5959 94.6309 11.0759 96.8495 11.0759C99.7269 11.0759 102.171 11.7173 104.182 12.9999C106.227 14.2826 107.787 16.0853 108.862 18.4079C109.936 20.6959 110.474 23.3479 110.474 26.3639C110.474 28.6866 110.266 30.9399 109.85 33.1239C109.434 35.3079 108.879 37.5266 108.186 39.7799C108.082 40.1613 107.891 40.4386 107.614 40.6119C107.371 40.7853 107.094 40.8719 106.782 40.8719ZM136.663 47.1119C135.173 47.1119 133.907 46.6093 132.867 45.6039C131.827 44.5986 131.342 43.3333 131.411 41.8079C131.619 40.3173 132.278 39.1213 133.387 38.2199C134.531 37.3186 135.901 36.6253 137.495 36.1399C139.09 35.6199 140.667 35.2213 142.227 34.9439C142.331 33.9039 142.401 33.2279 142.435 32.9159C142.505 32.5693 142.557 32.3093 142.591 32.1359C140.927 33.4879 139.021 34.5453 136.871 35.3079C134.722 36.0706 132.573 36.4519 130.423 36.4519C128.378 36.4519 126.471 36.0879 124.703 35.3599C122.103 34.2506 120.11 32.5519 118.723 30.2639C117.371 27.9413 116.695 25.4626 116.695 22.8279C116.695 19.9853 117.371 17.4719 118.723 15.2879C120.11 13.1039 121.982 11.3879 124.339 10.1399C126.697 8.89192 129.331 8.26792 132.243 8.26792C134.323 8.26792 136.282 8.61459 138.119 9.30792C139.957 10.0013 141.551 11.0586 142.903 12.4799C143.493 12.4799 143.891 12.6013 144.099 12.8439C144.342 13.0866 144.498 13.3986 144.567 13.7799C144.949 15.5133 145.243 17.6453 145.451 20.1759C145.694 22.7066 145.815 25.2026 145.815 27.6639C145.815 29.0159 145.781 30.2986 145.711 31.5119C145.642 32.7253 145.521 33.7999 145.347 34.7359C147.011 34.7359 147.757 35.3079 147.583 36.4519C147.583 36.8333 147.427 37.1626 147.115 37.4399C146.838 37.7173 146.439 37.8559 145.919 37.8559C145.85 37.8213 145.746 37.8039 145.607 37.8039C145.469 37.8039 145.191 37.8039 144.775 37.8039C144.394 39.5026 143.874 41.0453 143.215 42.4319C142.557 43.8533 141.69 44.9799 140.615 45.8119C139.575 46.6786 138.258 47.1119 136.663 47.1119ZM126.939 32.8119C128.014 33.1586 129.193 33.3319 130.475 33.3319C132.763 33.3319 135.034 32.7946 137.287 31.7199C139.541 30.6453 141.378 29.2066 142.799 27.4039C142.799 26.8493 142.765 26.0519 142.695 25.0119C142.626 23.9719 142.522 22.8626 142.383 21.6839C142.279 20.4706 142.158 19.3786 142.019 18.4079C141.915 17.4026 141.829 16.6746 141.759 16.2239C141.17 15.1493 140.303 14.2479 139.159 13.5199C138.015 12.7919 136.75 12.2546 135.363 11.9079C134.011 11.5266 132.677 11.3359 131.359 11.3359C129.037 11.4053 127.026 11.9599 125.327 12.9999C123.629 14.0053 122.311 15.3746 121.375 17.1079C120.474 18.8066 120.023 20.7653 120.023 22.9839C120.023 25.3066 120.613 27.3519 121.791 29.1199C123.005 30.8879 124.721 32.1186 126.939 32.8119ZM136.767 44.0959C137.634 44.0959 138.362 43.7839 138.951 43.1599C139.575 42.5359 140.095 41.7733 140.511 40.8719C140.927 39.9706 141.257 39.0866 141.499 38.2199C140.529 38.4279 139.506 38.7053 138.431 39.0519C137.357 39.3986 136.438 39.8146 135.675 40.2999C134.947 40.8199 134.583 41.4613 134.583 42.2239C134.583 42.7439 134.791 43.1773 135.207 43.5239C135.658 43.9053 136.178 44.0959 136.767 44.0959ZM159.118 21.4239C156.9 21.4239 155.114 20.7306 153.762 19.3439C152.41 17.9573 151.734 16.2586 151.734 14.2479C151.734 12.0986 152.41 10.3653 153.762 9.04792C155.114 7.73059 156.9 7.07192 159.118 7.07192C160.574 7.07192 161.857 7.40126 162.966 8.05992C164.076 8.68392 164.925 9.53326 165.514 10.6079C166.138 11.6826 166.45 12.8959 166.45 14.2479C166.45 15.5999 166.138 16.8133 165.514 17.8879C164.89 18.9626 164.024 19.8293 162.914 20.4879C161.805 21.1119 160.54 21.4239 159.118 21.4239ZM159.118 18.3039C160.505 18.3039 161.562 17.9226 162.29 17.1599C163.018 16.3973 163.382 15.4266 163.382 14.2479C163.382 12.9653 163.001 11.9773 162.238 11.2839C161.476 10.5559 160.436 10.1919 159.118 10.1919C157.732 10.1919 156.674 10.5733 155.946 11.3359C155.218 12.0639 154.854 13.0346 154.854 14.2479C154.854 15.4959 155.236 16.4839 155.998 17.2119C156.761 17.9399 157.801 18.3039 159.118 18.3039ZM159.118 40.5599C158.564 40.5599 158.165 40.4039 157.922 40.0919C157.68 39.8146 157.541 39.4853 157.506 39.1039C157.402 36.5386 157.35 33.9039 157.35 31.1999C157.35 28.9119 157.402 26.7799 157.506 24.8039C157.541 24.2493 157.732 23.8679 158.078 23.6599C158.46 23.4173 158.824 23.3306 159.17 23.3999C159.586 23.3999 159.933 23.5559 160.21 23.8679C160.488 24.1799 160.626 24.5786 160.626 25.0639C160.557 25.4106 160.505 26.1559 160.47 27.2999C160.436 28.4439 160.418 29.7093 160.418 31.0959C160.418 32.2053 160.418 33.3146 160.418 34.4239C160.453 35.4986 160.488 36.4346 160.522 37.2319C160.557 38.0293 160.592 38.5666 160.626 38.8439C160.626 39.4333 160.47 39.8666 160.158 40.1439C159.846 40.4213 159.5 40.5599 159.118 40.5599Z" fill="black" fill-opacity="0.6"/>
</svg>
